<svg width="24" height="24" viewBox="0 0 24 24" fill="none" xmlns="http://www.w3.org/2000/svg">
<path d="M4.29167 0.5C2.201 0.5 0.5 2.201 0.5 4.29167V17.7083C0.5 19.799 2.201 21.5 4.29167 21.5H11.033C10.6865 20.9592 10.4049 20.373 10.2036 19.75H8.66667V15.0833H10.2036C10.4049 14.4603 10.6871 13.8741 11.0342 13.3333H8.66667V8.66667H13.3333V11.033C13.8741 10.6865 14.4603 10.4043 15.0833 10.2025V8.66667H19.75V10.2036C20.373 10.4049 20.9592 10.6871 21.5 11.0342V4.29167C21.5 2.201 19.799 0.5 17.7083 0.5H4.29167ZM4.29167 2.25H6.91667V6.91667H2.25V4.29167C2.25 3.16583 3.16583 2.25 4.29167 2.25ZM8.66667 2.25H13.3333V6.91667H8.66667V2.25ZM15.0833 2.25H17.7083C18.8342 2.25 19.75 3.16583 19.75 4.29167V6.91667H15.0833V2.25ZM2.25 8.66667H6.91667V13.3333H2.25V8.66667ZM17.4167 11C13.8729 11 11 13.8729 11 17.4167C11 20.9604 13.8729 23.8333 17.4167 23.8333C20.9604 23.8333 23.8333 20.9604 23.8333 17.4167C23.8333 13.8729 20.9604 11 17.4167 11ZM16.8333 13.3333C17.1553 13.3333 17.4167 13.5947 17.4167 13.9167V17.4167H20.3333C20.6553 17.4167 20.9167 17.678 20.9167 18C20.9167 18.322 20.6553 18.5833 20.3333 18.5833H16.8333C16.5113 18.5833 16.25 18.322 16.25 18V13.9167C16.25 13.5947 16.5113 13.3333 16.8333 13.3333ZM2.25 15.0833H6.91667V19.75H4.29167C3.16583 19.75 2.25 18.8342 2.25 17.7083V15.0833Z" fill="#222222"/>
</svg>
