<svg width="20" height="24" viewBox="0 0 20 24" fill="none" xmlns="http://www.w3.org/2000/svg">
<path d="M9.99992 0.333328C4.53365 0.333328 0.083252 4.78373 0.083252 10.25C0.083252 12.704 0.983514 14.9545 2.46216 16.6849L2.46672 16.6894L2.47013 16.694C2.47013 16.694 6.68876 21.5078 8.19067 22.9409C9.19642 23.8998 10.8023 23.8998 11.808 22.9409C13.52 21.308 17.5308 16.6917 17.5308 16.6917L17.5331 16.6883L17.5365 16.6849C19.0165 14.9545 19.9166 12.704 19.9166 10.25C19.9166 4.78373 15.4662 0.333328 9.99992 0.333328ZM9.99992 2.08333C14.5203 2.08333 18.1666 5.7296 18.1666 10.25C18.1666 12.2772 17.4278 14.119 16.2058 15.5478C16.1979 15.5569 12.0941 20.2504 10.6003 21.6751C10.2539 22.0054 9.74478 22.0054 9.39836 21.6751C8.14992 20.4838 3.80556 15.5622 3.79289 15.5478L3.79175 15.5467C2.57136 14.118 1.83325 12.2766 1.83325 10.25C1.83325 5.7296 5.47952 2.08333 9.99992 2.08333ZM9.99992 6.74999C8.90617 6.74999 7.97506 7.19166 7.3772 7.86425C6.77933 8.53685 6.49992 9.3993 6.49992 10.25C6.49992 11.1007 6.77933 11.9631 7.3772 12.6357C7.97506 13.3083 8.90617 13.75 9.99992 13.75C11.0937 13.75 12.0248 13.3083 12.6226 12.6357C13.2205 11.9631 13.4999 11.1007 13.4999 10.25C13.4999 9.3993 13.2205 8.53685 12.6226 7.86425C12.0248 7.19166 11.0937 6.74999 9.99992 6.74999ZM9.99992 8.49999C10.6562 8.49999 11.0376 8.71458 11.3147 9.02636C11.5918 9.33814 11.7499 9.78819 11.7499 10.25C11.7499 10.7118 11.5918 11.1618 11.3147 11.4736C11.0376 11.7854 10.6562 12 9.99992 12C9.34367 12 8.96228 11.7854 8.68514 11.4736C8.408 11.1618 8.24992 10.7118 8.24992 10.25C8.24992 9.78819 8.408 9.33814 8.68514 9.02636C8.96228 8.71458 9.34367 8.49999 9.99992 8.49999Z" fill="#222222"/>
</svg>
