<svg width="22" height="24" viewBox="0 0 22 24" fill="none" xmlns="http://www.w3.org/2000/svg">
<path d="M10.2916 0.333344C7.50481 0.333344 5.21765 1.11723 3.63794 2.61313C2.05823 4.10903 1.24992 6.2739 1.24992 8.79168V10.9837C0.584786 11.5148 0.083252 12.2512 0.083252 13.1667C0.083252 14.5444 1.07753 15.6575 2.36987 15.9557C2.89285 18.0295 3.76224 19.8769 4.9869 21.2331C6.32984 22.7202 8.07894 23.6667 9.99992 23.6667C10.1159 23.6683 10.231 23.6469 10.3386 23.6037C10.4462 23.5604 10.5441 23.4962 10.6267 23.4148C10.7093 23.3334 10.7748 23.2364 10.8196 23.1294C10.8643 23.0224 10.8874 22.9076 10.8874 22.7917C10.8874 22.6757 10.8643 22.5609 10.8196 22.4539C10.7748 22.347 10.7093 22.2499 10.6267 22.1685C10.5441 22.0871 10.4462 22.0229 10.3386 21.9797C10.231 21.9365 10.1159 21.915 9.99992 21.9167C8.64782 21.9167 7.37616 21.2671 6.28573 20.0596C5.19529 18.852 4.32573 17.0917 3.89201 15.0249C3.85066 14.8283 3.74294 14.652 3.58693 14.5254C3.43092 14.3988 3.23612 14.3298 3.03524 14.3299C2.85632 14.3299 2.8455 14.3333 2.99992 14.3333C2.34522 14.3333 1.83325 13.8214 1.83325 13.1667C1.83325 12.6979 2.10246 12.316 2.49976 12.1276C2.6494 12.0567 2.77584 11.9447 2.86438 11.8047C2.95292 11.6648 2.99992 11.5025 2.99992 11.3369V8.79168C2.99992 6.63812 3.64994 5.01141 4.84106 3.88347C6.03219 2.75554 7.82836 2.08334 10.2916 2.08334C13.9767 2.08334 16.4005 3.77282 17.581 6.24073C17.5924 6.26509 17.5904 6.27311 17.5468 6.2863C16.9015 6.48148 15.3408 6.75001 13.4999 6.75001C11.276 6.75001 9.7967 6.33561 8.8868 5.94565C7.9769 5.55569 7.7019 5.25636 7.7019 5.25636C7.59804 5.15248 7.46969 5.07643 7.3287 5.03521C7.18771 4.99398 7.03861 4.98891 6.89514 5.02046C6.75167 5.05202 6.61846 5.11918 6.50778 5.21576C6.39709 5.31233 6.3125 5.43522 6.2618 5.57309C6.2618 5.57309 6.0668 6.17945 5.09058 6.93116C4.99946 7.00133 4.92305 7.08876 4.86573 7.18846C4.8084 7.28816 4.77127 7.39817 4.75646 7.51222C4.74165 7.62627 4.74944 7.74212 4.7794 7.85315C4.80936 7.96419 4.8609 8.06823 4.93107 8.15935C5.00124 8.25047 5.08867 8.32687 5.18837 8.3842C5.28807 8.44153 5.39808 8.47866 5.51213 8.49347C5.62618 8.50828 5.74203 8.50049 5.85306 8.47052C5.9641 8.44056 6.06814 8.38903 6.15926 8.31886C6.73189 7.87792 7.08262 7.42807 7.35897 7.04168C7.64999 7.24321 7.64916 7.31985 8.19637 7.55437C9.32813 8.03941 11.0572 8.50001 13.4999 8.50001C14.7516 8.50001 15.8286 8.39373 16.7071 8.24936C16.8441 8.6605 16.9999 9.26159 16.9999 9.95834V15.7917C16.9999 17.252 15.8353 18.4167 14.3749 18.4167H13.3017C13.1362 18.0678 12.8751 17.773 12.5489 17.5665C12.2226 17.36 11.8444 17.2502 11.4583 17.25C11.1901 17.25 10.9246 17.3028 10.6769 17.4054C10.4292 17.508 10.2042 17.6584 10.0146 17.848C9.82499 18.0376 9.6746 18.2627 9.572 18.5104C9.46939 18.7581 9.41658 19.0236 9.41658 19.2917C9.41658 19.5598 9.46939 19.8253 9.572 20.073C9.6746 20.3207 9.82499 20.5458 10.0146 20.7353C10.2042 20.9249 10.4292 21.0753 10.6769 21.1779C10.9246 21.2805 11.1901 21.3333 11.4583 21.3333C11.8442 21.3329 12.2221 21.2231 12.5482 21.0166C12.8743 20.8101 13.1351 20.5154 13.3005 20.1667H14.3749C16.6824 20.1667 18.583 18.3541 18.7351 16.0833H18.7499C20.0385 16.0833 21.0833 15.0386 21.0833 13.75V12.5833C21.0833 11.2948 20.0385 10.25 18.7499 10.25V9.95834C18.7499 9.10713 18.5792 8.35167 18.4093 7.80844C19.1977 7.36207 19.5708 6.34578 19.1601 5.48536C17.6993 2.43144 14.534 0.333344 10.2916 0.333344ZM7.08325 12C6.77383 12 6.47709 12.1229 6.25829 12.3417C6.0395 12.5605 5.91658 12.8573 5.91658 13.1667C5.91658 13.4761 6.0395 13.7728 6.25829 13.9916C6.47709 14.2104 6.77383 14.3333 7.08325 14.3333C7.39267 14.3333 7.68942 14.2104 7.90821 13.9916C8.127 13.7728 8.24992 13.4761 8.24992 13.1667C8.24992 12.8573 8.127 12.5605 7.90821 12.3417C7.68942 12.1229 7.39267 12 7.08325 12ZM12.9166 12C12.6072 12 12.3104 12.1229 12.0916 12.3417C11.8728 12.5605 11.7499 12.8573 11.7499 13.1667C11.7499 13.4761 11.8728 13.7728 12.0916 13.9916C12.3104 14.2104 12.6072 14.3333 12.9166 14.3333C13.226 14.3333 13.5227 14.2104 13.7415 13.9916C13.9603 13.7728 14.0833 13.4761 14.0833 13.1667C14.0833 12.8573 13.9603 12.5605 13.7415 12.3417C13.5227 12.1229 13.226 12 12.9166 12Z" fill="#222222"/>
</svg>
