<svg width="22" height="24" viewBox="0 0 22 24" fill="none" xmlns="http://www.w3.org/2000/svg">
<path d="M11 0.925781C10.3299 0.925781 9.66011 1.14374 9.10645 1.57975C9.10606 1.57975 9.10569 1.57975 9.10531 1.57975L2.16797 7.04736C1.11589 7.87649 0.5 9.14341 0.5 10.4836V21.0348C0.5 22.1519 1.42461 23.0765 2.54167 23.0765H19.4583C20.5754 23.0765 21.5 22.1519 21.5 21.0348V10.4836C21.5 9.14341 20.8841 7.87649 19.832 7.04736C19.832 7.04698 19.832 7.0466 19.832 7.04622L12.8936 1.57975C12.3399 1.14374 11.6701 0.925781 11 0.925781ZM11 2.67122C11.2857 2.67122 11.5715 2.76617 11.8112 2.95492L18.7497 8.42139C19.3823 8.91992 19.75 9.67821 19.75 10.4836V21.0348C19.75 21.2069 19.6304 21.3265 19.4583 21.3265H2.54167C2.36956 21.3265 2.25 21.2069 2.25 21.0348V10.4836C2.25 9.67821 2.61774 8.91992 3.25033 8.42139L10.1888 2.95492C10.4285 2.76617 10.7143 2.67122 11 2.67122ZM11 8.5057C8.60962 8.5057 6.21877 9.41436 4.3999 11.2332C4.31858 11.3146 4.25408 11.4111 4.21007 11.5173C4.16606 11.6236 4.14341 11.7375 4.14341 11.8525C4.14341 11.9675 4.16606 12.0813 4.21007 12.1876C4.25408 12.2938 4.31858 12.3904 4.3999 12.4717C4.48122 12.553 4.57776 12.6175 4.684 12.6615C4.79025 12.7055 4.90412 12.7282 5.01912 12.7282C5.13412 12.7282 5.248 12.7055 5.35424 12.6615C5.46049 12.6175 5.55703 12.553 5.63835 12.4717C8.60744 9.50259 13.3926 9.50259 16.3617 12.4717C16.443 12.553 16.5395 12.6175 16.6458 12.6615C16.752 12.7055 16.8659 12.7282 16.9809 12.7282C17.0959 12.7282 17.2097 12.7055 17.316 12.6615C17.4222 12.6175 17.5188 12.553 17.6001 12.4717C17.6814 12.3904 17.7459 12.2938 17.7899 12.1876C17.8339 12.0813 17.8566 11.9675 17.8566 11.8525C17.8566 11.7375 17.8339 11.6236 17.7899 11.5173C17.7459 11.4111 17.6814 11.3146 17.6001 11.2332C15.7812 9.41436 13.3904 8.5057 11 8.5057ZM11 12.589C9.65453 12.589 8.30957 13.0999 7.28809 14.1214C7.20411 14.202 7.13706 14.2986 7.09088 14.4055C7.04469 14.5123 7.02029 14.6273 7.0191 14.7438C7.01792 14.8602 7.03997 14.9756 7.08397 15.0834C7.12798 15.1912 7.19304 15.2891 7.27536 15.3714C7.35768 15.4538 7.4556 15.5188 7.56338 15.5628C7.67116 15.6068 7.78664 15.6289 7.90305 15.6277C8.01946 15.6265 8.13447 15.6021 8.24133 15.5559C8.34819 15.5097 8.44476 15.4427 8.52539 15.3587C9.89958 13.9845 12.1016 13.9845 13.4757 15.3587C13.5564 15.4427 13.6529 15.5097 13.7598 15.5559C13.8667 15.6021 13.9817 15.6265 14.0981 15.6277C14.2145 15.6289 14.33 15.6068 14.4378 15.5628C14.5455 15.5188 14.6435 15.4538 14.7258 15.3714C14.8081 15.2891 14.8732 15.1912 14.9172 15.0834C14.9612 14.9756 14.9832 14.8602 14.982 14.7438C14.9809 14.6273 14.9565 14.5123 14.9103 14.4055C14.8641 14.2986 14.797 14.202 14.7131 14.1214C13.6916 13.0999 12.3455 12.589 11 12.589ZM11 16.6667C10.6906 16.6667 10.3938 16.7896 10.175 17.0084C9.95625 17.2272 9.83333 17.5239 9.83333 17.8333C9.83333 18.1428 9.95625 18.4395 10.175 18.6583C10.3938 18.8771 10.6906 19 11 19C11.3094 19 11.6062 18.8771 11.825 18.6583C12.0437 18.4395 12.1667 18.1428 12.1667 17.8333C12.1667 17.5239 12.0437 17.2272 11.825 17.0084C11.6062 16.7896 11.3094 16.6667 11 16.6667Z" fill="#222222"/>
</svg>
