<svg width="12" height="20" viewBox="0 0 12 20" fill="none" xmlns="http://www.w3.org/2000/svg">
<path fill-rule="evenodd" clip-rule="evenodd" d="M0.968875 0.468998C1.03854 0.399153 1.12131 0.343739 1.21243 0.305929C1.30354 0.26812 1.40122 0.248657 1.49988 0.248657C1.59853 0.248657 1.69621 0.26812 1.78733 0.305929C1.87844 0.343739 1.96121 0.399153 2.03088 0.468998L11.0309 9.469C11.1007 9.53867 11.1561 9.62143 11.1939 9.71255C11.2318 9.80367 11.2512 9.90135 11.2512 10C11.2512 10.0986 11.2318 10.1963 11.1939 10.2874C11.1561 10.3786 11.1007 10.4613 11.0309 10.531L2.03088 19.531C1.89005 19.6718 1.69904 19.7509 1.49988 19.7509C1.30071 19.7509 1.10971 19.6718 0.968875 19.531C0.828045 19.3902 0.748928 19.1992 0.748928 19C0.748928 18.8008 0.828045 18.6098 0.968875 18.469L9.43938 10L0.968875 1.531C0.899031 1.46133 0.843616 1.37857 0.805806 1.28745C0.767997 1.19633 0.748535 1.09865 0.748535 0.999998C0.748535 0.901347 0.767997 0.803665 0.805806 0.712548C0.843616 0.62143 0.899031 0.538667 0.968875 0.468998Z" fill="black"/>
</svg>
